<svg xmlns="http://www.w3.org/2000/svg" id="backup" viewBox="0 0 769 769" width="500" height="500" shape-rendering="geometricPrecision" text-rendering="geometricPrecision" version="1.1">
  <style id="spin">
    @keyframes arrow_animation_group__tr{0%,to{transform:translate(383.551353px,385.435974px) rotate(0deg)}90%{transform:translate(383.551353px,385.435974px) rotate(-720deg)}}#arrow_animation_group{animation:arrow_animation_group__tr 5000ms linear infinite normal forwards}
  </style>
  <g id="background" transform="matrix(4 0 0 4 -897.24 -2361.366)">
    <path id="square" d="M416.09 686.72v72.19c0 11.03-8.32 21.11-19.18 23.18-1.61.31-3.27.48-4.9.48-47.97.03-95.93.02-143.9.02-11.76 0-22.02-9.02-23.56-20.72a23.27 23.27 0 01-.23-3.12c-.01-48.09-.01-96.18-.01-144.26 0-11.03 8.32-21.12 19.18-23.18 1.61-.31 3.27-.48 4.9-.48 48.01-.02 96.02-.02 144.02-.02 11.03 0 21.13 8.33 23.18 19.18.3 1.61.48 3.27.48 4.9.03 23.95.02 47.89.02 71.83z" fill="#D52727" stroke="none" stroke-width="1"/>
  </g>
  <g id="arrow_animation_group" transform="translate(383.551 385.436)">
    <g id="arrow_center" transform="matrix(4 0 0 4 -1280.756 -2746.8)">
      <g id="arrow_group" fill="#FFF" stroke="none" stroke-width="1">
        <path id="arrow1" d="M286.51 678.46c-.24 0-.48-.01-.73-.02-3.92-.17-8.17-.25-13.39-.25-3.13 0-6.25.03-9.38.05-3.14.03-6.29.05-9.43.05h-2.12c-9.64-.04-15.64-6.15-15.65-15.93-.02-11.35-.02-22.71 0-34.06.01-8.94 6.05-15.72 14.36-16.13.25-.01.5-.02.75-.02 6.72 0 12.14 4.54 14.01 11.39 8.87-7.75 18.59-13.39 29.56-17.17 8.66-2.98 17.74-4.49 27-4.49 34.26 0 65.78 20.57 78.43 51.19 1.8 4.35 1.9 8.83.28 12.61-1.49 3.49-4.41 6.23-8.21 7.71-1.87.73-3.76 1.09-5.64 1.09-5.87 0-11-3.63-13.74-9.71-5.94-13.2-15.24-22.53-28.43-28.53-6.63-3.01-14.23-4.61-21.96-4.61-16 0-31.09 6.48-40.75 17.21 0 0 3.26 0 4.59-.01 9.58 0 15.9 5.71 16.17 14.54.11 3.77-1.34 7.41-4.08 10.23-2.99 3.1-7.23 4.86-11.64 4.86z"/>
        <path id="arrow2" d="M321.93 771.52c-33.92 0-65.42-20.67-78.39-51.44-3.12-7.41-.86-15.04 5.64-19.01 2.35-1.44 5.04-2.19 7.76-2.19 4.5 0 8.7 2.03 11.53 5.57 1 1.25 1.67 2.66 2.26 3.9.16.35.33.69.5 1.03 10.45 20.86 27.26 31.74 49.95 32.35.53.01 1.07.02 1.59.02 14.4 0 27.05-5.27 37.67-15.69h-2.28c-1.7 0-3.38-.01-5.07-.03-8.7-.12-14.98-6.44-14.92-15.03.06-8.14 6.37-14.33 14.68-14.39 6.4-.05 12.97-.08 19.54-.08 5.77 0 11.53.02 17.3.06 8.56.05 14.8 6.44 14.85 15.18.07 12.26.04 24.63.01 35.26-.03 8.54-5.59 14.84-13.83 15.68-.45.05-.9.07-1.35.07-6.05 0-11.31-4.02-13.55-10.07-1.36.83-2.71 1.66-4.04 2.49-5.28 3.27-10.74 6.66-16.54 9.25-10.48 4.69-21.69 7.07-33.31 7.07z"/>
      </g>
    </g>
  </g>
</svg>
