<svg xmlns="http://www.w3.org/2000/svg" id="cloud" viewBox="0 0 769 769" width="500" height="500" shape-rendering="geometricPrecision" text-rendering="geometricPrecision" version="1.1">
  <style id="drift">
    @keyframes cloud1_animation_group__to{0%,to{transform:translate(-34.75px,-34.5px)}60%{transform:translate(-4.75px,-34.5px)}}@keyframes cloud2_animation_group__to{0%,to{transform:translate(0,0)}34%{transform:translate(-20px,0)}}#cloud1_animation_group{animation:cloud1_animation_group__to 10000ms linear infinite normal forwards}#cloud2_animation_group{animation:cloud2_animation_group__to 10000ms linear infinite normal forwards}
  </style>
  <g id="background" transform="matrix(4 0 0 4 -807.766 -2318.526)">
    <path id="square" d="M394.19 676.01v72.19c0 11.03-8.32 21.11-19.18 23.18-1.61.31-3.27.48-4.9.48-47.97.03-95.93.02-143.9.02-11.76 0-22.02-9.02-23.56-20.72a23.27 23.27 0 01-.23-3.12c-.01-48.09-.01-96.18-.01-144.26 0-11.03 8.32-21.12 19.18-23.18 1.61-.31 3.27-.48 4.9-.48 48.01-.02 96.02-.02 144.02-.02 11.03 0 21.13 8.33 23.18 19.18.3 1.61.48 3.27.48 4.9.03 23.94.02 47.89.02 71.83z" fill="#FE8A30" stroke="none" stroke-width="1"/>
  </g>
  <g id="clouds" transform="matrix(4 0 0 4 -807.792 -2303.225)">
    <g id="cloud1_animation_group" transform="translate(-34.75 -34.5)">
      <path id="cloud1" d="M390.5 707.96c-.71 2.69-1.18 5.48-2.17 8.07-4.24 11.07-14.77 18.19-26.6 18.19-32.13 0-64.27-.01-96.4.01-7.36.01-13.85-2.11-18.8-7.75-6.05-6.89-7.65-14.87-4.5-23.43 3.15-8.56 9.55-13.53 18.63-14.91.88-.13 1.77-.22 2.65-.33.5-2.63.8-5.31 1.54-7.86 4.42-15.15 20.06-23.79 35.2-19.46 1.63.47 2.25-.01 3.03-1.34 7.31-12.41 20.43-18.51 34.02-16.84 14.77 1.82 26.36 12.69 29.52 27.07.46 2.09.58 4.26.72 6.41.07.96.26 1.38 1.32 1.7 12.32 3.69 19.62 11.81 21.52 24.63.04.28.21.54.32.8v5.04z" fill="#FFF" stroke="none" stroke-width="1"/>
    </g>
    <g id="cloud2_animation_group">
      <g id="cloud2_group" stroke="none" stroke-width="1">
        <path id="cloud2_background" d="M386.585 710.389c-.673 2.757-.161 5.528-1.1 8.183-4.024 11.348-15.213 15.648-26.438 15.648-30.485 0-60.98-.01-91.466.01-6.983.01-13.141-2.163-17.838-7.945-5.74-7.063-11.787-16.196-8.798-24.971.852-4.918 5.429-12.094 14.27-16.212.834-.133 5.506-2.859 6.341-2.972.475-2.696 2.205-6.112 2.907-8.726 4.099-12.003 21.657-20.18 34.258-18.648 1.547.482 1.708.588 2.448-.775 6.936-12.722 21.614-15.691 34.509-13.98 14.657 1.866 28.874 13.443 33.346 30.211.437 2.143.469 3.407 4.728 4.788 9.287 3.5 8.631 4.383 9.637 4.711 5.741 8.384 1.394 7.996 3.196 21.138.038.287-.016 1.952 0 3.077v6.463z" transform="matrix(1.1 0 0 1.1 -31.548 -68.813)" fill="#FE8A30"/>
        <path id="cloud2" d="M390.5 707.96c-.71 2.69-1.18 5.48-2.17 8.07-4.24 11.07-14.77 18.19-26.6 18.19-32.13 0-64.27-.01-96.4.01-7.36.01-13.85-2.11-18.8-7.75-6.05-6.89-7.65-14.87-4.5-23.43 3.15-8.56 9.55-13.53 18.63-14.91.88-.13 1.77-.22 2.65-.33.5-2.63.8-5.31 1.54-7.86 4.42-15.15 20.06-23.79 35.2-19.46 1.63.47 2.25-.01 3.03-1.34 7.31-12.41 20.43-18.51 34.02-16.84 14.77 1.82 26.36 12.69 29.52 27.07.46 2.09.58 4.26.72 6.41.07.96.26 1.38 1.32 1.7 12.32 3.69 19.62 11.81 21.52 24.63.04.28.21.54.32.8v5.04z" fill="#FFF"/>
      </g>
    </g>
  </g>
</svg>
