<svg xmlns="http://www.w3.org/2000/svg" id="grafana" viewBox="0 0 769 769" width="500" height="500" shape-rendering="geometricPrecision" text-rendering="geometricPrecision" version="1.1">
  <style id="spin">
    @keyframes grafana_animation__tr{0%{transform:translate(381.556015px,384.486542px) rotate(0deg)}to{transform:translate(381.556015px,384.486542px) rotate(-360deg)}}#grafana_animation{animation:grafana_animation__tr 500ms linear infinite normal forwards}
  </style>
  <g id="background" transform="matrix(4 0 0 4 -761.4 -2310.823)">
    <path id="square" d="M382.13 673.85v72.19c0 11.03-8.32 21.11-19.18 23.18-1.61.31-3.27.48-4.9.48-47.97.03-95.93.02-143.9.02-11.76 0-22.02-9.02-23.56-20.72a23.27 23.27 0 01-.23-3.12c-.01-48.09-.01-96.18-.01-144.26 0-11.03 8.32-21.12 19.18-23.18 1.61-.31 3.27-.48 4.9-.48 48.01-.02 96.02-.02 144.02-.02 11.03 0 21.13 8.33 23.18 19.18.3 1.61.48 3.27.48 4.9.03 23.95.02 47.89.02 71.83z" fill="#FE8A30" stroke="none" stroke-width="1"/>
  </g>
  <g id="grafana_animation" transform="translate(381.556 384.487)">
    <g id="grafana_group" transform="matrix(4 0 0 4 -1136.935 -2695.27)">
      <path id="grafana_logo" d="M291 589.28c6.83 3.75 11.82 9.13 14.76 16.4.3.75 1.31 1.46 2.13 1.71 4.57 1.39 9.17 2.69 13.8 3.87.93.24 2.19.12 3.02-.34 4.14-2.26 8.58-3.22 13.23-3.49 1.77-.1 2.74.55 3.43 2.18 1.86 4.41 2.87 8.88 2.28 13.72-.15 1.22.59 2.88 1.47 3.83 10.42 11.4 16.26 24.69 16.93 40.17.03.75.16 1.55-.05 2.24-.18.61-.76 1.1-1.17 1.65-.53-.42-1.33-.74-1.53-1.28-.97-2.54-1.6-5.21-2.65-7.71-8.82-20.95-24.11-34.49-46.89-37.05-28.86-3.24-52.84 9.91-58.84 43.72-4.87 27.44 12.51 48.54 33.21 54.38 15.71 4.44 29.86 1.97 40.58-11.12 8.13-9.92 11.05-21.41 5.8-33.73-5.16-12.12-19.37-18.82-31.19-15.24-10.24 3.1-17 13.78-15.22 24.05 1.92 11.06 13.7 17.55 24.06 13.36.88-.35 2.11.17 3.17.28-.45.98-.63 2.34-1.39 2.9-6.62 4.88-16.91 4.43-24.61-.92-10.48-7.28-13.97-20.89-8.66-33.78 6.56-15.92 23.49-23.97 41.24-19.61 20.9 5.13 34.89 24.55 33.28 46.03-.08 1.08.52 2.51 1.29 3.3 3.85 3.96 6.4 8.58 7.38 13.99.17.92-.35 2.4-1.06 2.96-3.84 3.03-8.23 4.97-13.18 5.05-1.97.03-2.86.96-4.04 2.31-3.83 4.36-7.99 8.44-11.89 12.73-.9.99-1.74 2.38-1.9 3.67-.82 7-3.83 12.92-8.48 18.06-.53.59-1.84.92-2.66.75-6.52-1.37-12.1-4.42-16.63-9.42-.86-.94-2.44-1.49-3.77-1.7-6.66-1.05-13.34-1.99-20.03-2.81-1.32-.16-2.97-.01-4.06.66-6.98 4.27-14.47 6.59-22.66 6.84-2.24.07-3.09-.77-3.69-2.79-2.09-7.04-2.29-14.08-.3-21.13.44-1.57.18-2.51-.81-3.76-2.75-3.45-5.25-7.09-7.9-10.62-.53-.7-1.21-1.65-1.93-1.78-11.56-1.94-20.71-7.99-28.52-16.42v-1.13c.14-.12.34-.21.4-.36 3.86-9.79 10.19-17.44 19.36-22.72.74-.43 1.3-1.54 1.53-2.43 1.27-5.09 2.45-10.21 3.54-15.34.17-.79.02-1.86-.41-2.52-5.69-8.7-8.02-18.3-8.03-28.61 0-2.23.69-3.39 2.81-4.13 9.71-3.39 19.42-3.99 29.31-.78 1.04.34 2.5.05 3.55-.42 5.21-2.34 10.36-4.82 15.5-7.3.69-.33 1.63-.81 1.81-1.41 2.5-8.2 7.97-14.07 14.71-18.97.19.01.38.01.57.01z" fill="#FFF" stroke="none" stroke-width="1"/>
    </g>
  </g>
</svg>
