<svg xmlns="http://www.w3.org/2000/svg" id="home_wifi" viewBox="0 0 769 769" width="500" height="500" shape-rendering="geometricPrecision" text-rendering="geometricPrecision" version="1.1">
  <style id="wifi_signal">
    @keyframes signal3_f_o{0%,16.666667%,33.333333%{fill-opacity:1;animation-timing-function:step-end}25%,41.666667%,8.333333%{fill-opacity:0;animation-timing-function:step-end}to{fill-opacity:1}}@keyframes signal2_f_o{0%,58.333333%,75%,91.666667%{fill-opacity:1;animation-timing-function:step-end}50%,66.666667%,83.333333%{fill-opacity:0;animation-timing-function:step-end}to{fill-opacity:1}}#signal3{animation:signal3_f_o 6000ms linear infinite normal forwards}#signal2{animation:signal2_f_o 6000ms linear infinite normal forwards}
  </style>
  <g id="background" transform="matrix(4 0 0 4 -827.28 -2254.526)">
    <path id="square" d="M398.6 660.01v72.19c0 11.03-8.32 21.11-19.18 23.18-1.61.31-3.27.48-4.9.48-47.97.03-95.93.02-143.9.02-11.76 0-22.02-9.02-23.56-20.72a23.27 23.27 0 01-.23-3.12c-.01-48.09-.01-96.18-.01-144.26 0-11.03 8.32-21.12 19.18-23.18 1.61-.31 3.27-.48 4.9-.48 48.01-.02 96.02-.02 144.02-.02 11.03 0 21.13 8.33 23.18 19.18.3 1.61.48 3.27.48 4.9.03 23.95.02 47.89.02 71.83z" fill="#D52727" stroke="none" stroke-width="1"/>
  </g>
  <g id="house_top" transform="matrix(4 0 0 4 -827.276 -2254.526)">
    <g id="house_group" stroke="none" stroke-width="1">
      <path id="house" d="M239.33 665.85c-3.55 3.58-6.66 6.74-9.8 9.88-1.67 1.67-2.41 1.68-4.05.04-3.23-3.22-6.46-6.44-9.68-9.68-1.57-1.58-1.58-2.33 0-3.91 28.29-28.27 56.59-56.54 84.89-84.81 1.7-1.69 2.39-1.66 4.2.15 12.6 12.58 25.2 25.17 37.81 37.76.48.48.98.93 1.85 1.75v-2.39-17.21c0-.5 0-1 .04-1.5.27-3.53.78-4 4.29-4 4.56 0 9.13.08 13.69-.04 1.83-.05 2.68.74 2.95 2.37.15.92.21 1.86.21 2.79.01 13.19.02 26.37-.02 39.56 0 1.23.37 2.07 1.23 2.93 7.46 7.39 14.87 14.82 22.3 22.24 2.08 2.08 2.08 2.63 0 4.72-3.09 3.09-6.18 6.19-9.29 9.27-1.65 1.64-2.38 1.64-4.05-.03-3.14-3.14-6.26-6.28-9.79-9.83v74.7c0 2.92-.32 3.24-3.2 3.24H242.35c-2.61 0-3-.39-3-3.06v-72.36c-.02-.67-.02-1.33-.02-2.58z" fill="#FFF"/>
      <path id="signal3" d="M302.45 652.73c-17.02.41-32.22 6.42-44.93 18.49-3.54 3.35-8.52 3.49-11.7.19-3.65-3.78-3.49-8.63.34-12.25 13.09-12.35 28.53-19.98 46.37-22.09 26.05-3.09 48.71 4.64 67.77 22.69 2.91 2.76 3.1 7.23.7 10.43-2.6 3.48-6.87 4.6-10.46 2.65-.97-.53-1.8-1.33-2.62-2.09-12.71-11.74-27.74-17.69-45.47-18.02z" fill="#D52727"/>
      <path id="signal2" d="M305.85 667.06c11.17.29 23.16 5.09 33.1 14.78 3.76 3.66 3.71 8.29.01 12.06-3.17 3.24-8.01 3.12-11.53-.27-14.07-13.6-34.89-13.54-49.04.13-2.96 2.86-6.9 3.39-10.12 1.38-3.27-2.05-5.12-6.37-3.77-9.71.65-1.6 1.89-3.08 3.17-4.3 9.69-9.19 22.13-14.07 38.18-14.07z" fill="#D52727"/>
      <path id="signal1" d="M320.59 713.05c.32 8.74-6.81 17.39-16.65 17.94-10.12.57-18.45-7.39-18.71-17.38-.26-9.69 7.48-17.82 17.22-18.09 9.84-.27 17.86 7.48 18.14 17.53z" fill="#D52727"/>
    </g>
  </g>
</svg>
