<svg xmlns="http://www.w3.org/2000/svg" id="nzb" viewBox="0 0 769 769" width="500" height="500" shape-rendering="geometricPrecision" text-rendering="geometricPrecision" version="1.1">
  <style id="bounce">
    @keyframes arrow_animation__to{0%{transform:translate(320.055px,725.661539px);animation-timing-function:cubic-bezier(.42,0,.58,1)}50%{transform:translate(320.055px,658px)}to{transform:translate(320.055px,725.661539px)}}#arrow_animation{animation:arrow_animation__to 1600ms linear infinite normal forwards}
  </style>
  <g id="background" transform="matrix(4 0 0 4 -887.023 -2344.006)">
    <path id="square" d="M413.77 682.38v72.19c0 11.03-8.32 21.11-19.18 23.18-1.61.31-3.27.48-4.9.48-47.97.03-95.93.02-143.9.02-11.76 0-22.02-9.02-23.56-20.72a23.27 23.27 0 01-.23-3.12c-.01-48.09-.01-96.18-.01-144.26 0-11.03 8.32-21.12 19.18-23.18 1.61-.31 3.27-.48 4.9-.48 48.01-.02 96.02-.02 144.02-.02 11.03 0 21.13 8.33 23.18 19.18.3 1.61.48 3.27.48 4.9.03 23.94.02 47.89.02 71.83z" fill="#F3632D" stroke="none" stroke-width="1"/>
  </g>
  <g id="arrow_group" transform="matrix(4 0 0 4 -894.205 -2341.009)">
    <g id="arrow_animation" transform="translate(320.055 725.662)">
      <path id="arrow" d="M386.37 685.19c-1.37 1.69-2.74 3.39-4.11 5.08-12.5 15.48-25 30.96-37.51 46.43-7.37 9.11-14.76 18.2-22.14 27.3-.54.67-1.17 1.27-1.7 1.95-.65.83-1.17.76-1.82-.03-2.67-3.25-5.4-6.45-8.06-9.72-8.56-10.55-17.1-21.11-25.63-31.68-9.91-12.28-19.8-24.58-29.7-36.87-.59-.73-1.16-1.48-1.96-2.51 1.16-.08 1.99-.18 2.82-.18 14.3-.06 28.61-.09 42.91-.17 1.07-.01 1.76.34 2.42 1.17 5.64 7.01 11.31 13.98 16.98 20.96.32.4.69.76 1.14 1.25.69-.79 1.31-1.44 1.87-2.14 5.36-6.61 10.73-13.22 16.06-19.86.79-.98 1.62-1.39 2.91-1.39 14.59.05 29.18.03 43.77.03h1.55c.08.13.14.26.2.38z" transform="translate(-320.055 -725.662)" fill="#FFF" stroke="none" stroke-width="1"/>
    </g>
    <path id="letters_border" d="M388.99 651.7c-.01-1.11-.01-2.21-.01-3.32v-6.16c.01-5.43.01-11.05-.08-16.61-.15-8.76-4.93-12.98-8.92-14.97-2.89-1.44-6.13-2.2-9.37-2.2-2.09 0-4.13.3-6.08.88v-13.14h-30.05v13.43H299.9v3.04c-.13-.1-.24-.22-.37-.32-3.19-2.5-7.28-3.87-11.54-3.87-2.28 0-4.53.39-6.63 1.13h-29.81v72.68H276v.01h30.08v-.02h28.4v.02h27.46l.12-.44c2.37 1.19 4.84 1.69 8.2 1.69.48 0 .99-.01 1.52-.03 7.95-.25 14.98-6.25 16.35-13.95.46-2.58.73-5.26.8-7.97.09-3.31.07-6.65.06-9.88z" fill="#F3632D" stroke="none" stroke-width="1"/>
    <g id="letters" fill="#FFF" stroke="none" stroke-width="1">
      <path id="letter1" d="M340.15 601.86h18.71v17.51c.5-.45.77-.68 1.03-.93 4.63-4.51 11.75-5.61 17.56-2.71 4.12 2.06 5.71 5.68 5.78 9.99.13 7.56.07 15.11.08 22.67.01 4.35.08 8.71-.04 13.06-.06 2.38-.3 4.78-.71 7.12-.92 5.13-5.71 9.11-10.95 9.28-5.66.18-7.45-.59-12.79-5.55-.41 1.48-.79 2.87-1.19 4.32h-17.47c-.01-24.89-.01-49.78-.01-74.76zm24.23 44.4c0-5.22.03-10.43-.03-15.65-.01-1.27-.23-2.57-.55-3.8-.33-1.26-1.41-1.6-2.61-1.51-1.17.08-1.86.76-2 1.89-.16 1.28-.3 2.57-.3 3.86-.02 10-.03 20 0 30 0 1.29.13 2.59.36 3.85.26 1.42 1.21 2.12 2.54 2.02 1.33-.1 2.11-.84 2.28-2.16.15-1.18.29-2.38.3-3.57.04-4.98.02-9.95.01-14.93z"/>
      <path id="letter2" d="M257.22 615.26h18.97v5.09c.45-.56.72-.9.99-1.24 4.53-5.58 13.33-6.65 18.85-2.32 2.64 2.07 3.74 4.9 4 8.1.21 2.57.36 5.16.36 7.73.03 14.16.02 28.33.02 42.49v1.48h-18.74v-1.76c-.01-14.07 0-28.13-.03-42.2 0-1.72-.12-3.44-.24-5.16-.09-1.32-.75-2.12-2.16-2.2-1.57-.09-2.61.5-2.77 2.04-.29 2.75-.46 5.53-.47 8.29-.05 13.06-.02 26.13-.02 39.19v1.79h-18.77c.01-20.42.01-40.78.01-61.32z"/>
      <path id="letter3" d="M322.27 664.41h13.63v12.18h-31.84c0-1.86.11-3.72-.02-5.56-.36-4.82.62-9.28 2.48-13.76 3.86-9.3 7.32-18.77 10.94-28.17.17-.44.31-.89.54-1.56h-12.44v-12.26H336c0 .9-.08 1.8.01 2.68.75 7.37-.94 14.21-3.86 20.97-3.37 7.8-6.2 15.83-9.27 23.75-.17.49-.34.98-.61 1.73z"/>
    </g>
  </g>
</svg>
