<svg xmlns="http://www.w3.org/2000/svg" id="pirate" viewBox="0 0 769 769" width="500" height="500" shape-rendering="geometricPrecision" text-rendering="geometricPrecision" version="1.1">
  <style id="fearsome_wink">
    @keyframes sword1_animation1__to{0%,16.666667%{transform:translate(1600px,-800px)}23.333333%,to{transform:translate(800px,0)}}@keyframes sword1_animation2__tr{0%,86.666667%{transform:rotate(0deg)}to{transform:rotate(-180deg)}}@keyframes sword2_animation1__to{0%,30%{transform:translate(-800px,-800px)}36.666667%,to{transform:translate(0,0)}}@keyframes sword2_animation2__tr{0%,86.666667%{transform:rotate(0deg)}to{transform:rotate(180deg)}}@keyframes head_animation__to{0%,20%,26.666667%,33.333333%,40%,to{transform:translate(391.268881px,389.806746px)}23.333333%,36.666667%{transform:translate(391.268881px,400px)}}@keyframes right_eye_animation__ts{0%,60%,70%,to{transform:translate(322.862592px,686.351955px) scale(1,1)}63.333333%,66.666667%{transform:translate(322.862592px,686.351955px) scale(1,.1)}}#sword1_animation1{animation:sword1_animation1__to 3000ms linear infinite normal forwards}#sword1_animation2{animation:sword1_animation2__tr 3000ms linear infinite normal forwards}#sword2_animation1{animation:sword2_animation1__to 3000ms linear infinite normal forwards}#sword2_animation2{animation:sword2_animation2__tr 3000ms linear infinite normal forwards}#head_animation{animation:head_animation__to 3000ms linear infinite normal forwards}#right_eye_animation{animation:right_eye_animation__ts 3000ms linear infinite normal forwards}
  </style>
  <path id="background" d="M397.85 672.48v72.19c0 11.03-8.32 21.11-19.18 23.18-1.61.31-3.27.48-4.9.48-47.97.03-95.93.02-143.9.02-11.76 0-22.02-9.02-23.56-20.72a23.27 23.27 0 01-.23-3.12c-.01-48.09-.01-96.18-.01-144.26 0-11.03 8.32-21.12 19.18-23.18 1.61-.31 3.27-.48 4.9-.48 48.01-.02 96.02-.02 144.02-.02 11.03 0 21.13 8.33 23.18 19.18.3 1.61.48 3.27.48 4.9.03 23.94.02 47.89.02 71.83z" transform="matrix(4 0 0 4 -824.28 -2306.28)" fill="#F3632D" stroke="none" stroke-width="1"/>
  <g id="sword1_animation1" transform="translate(1600 -800)">
    <g id="sword1_animation2">
      <path id="sword1" d="M343.01 618.13c1.16-1.3 2.32-2.6 3.84-4.3-2.07-1.95-4.15-3.84-6.15-5.81-3.28-3.25-3.39-7.34-.33-10.36 2.87-2.84 7.14-2.68 10.26.42 3.76 3.73 7.49 7.48 11.5 11.5 4.73-4.82 9.35-9.53 13.98-14.23 1.43-1.45 2.84-2.91 4.3-4.33 3.13-3.03 7.43-3.12 10.26-.24s2.7 7.15-.39 10.26c-5.48 5.51-10.98 11-16.49 16.48-.56.56-1.26.98-2.1 1.62 4.17 4.16 8.03 7.96 11.82 11.83 2.93 2.99 2.95 7.31.13 10.1-2.81 2.78-6.89 2.89-9.74.14-2.03-1.96-3.91-4.07-6.04-6.29-3.11 3.32-6.01 6.33-60.075 59.51-54.065 53.18-71.055 58.97-89.755 61.8 11.1-12.26 21.82-24.12 72.245-79.825C340.7 620.7 341.86 619.42 343.01 618.13z" transform="matrix(4 0 0 4 -1640 -2320)" fill="#000" stroke="none" stroke-width="1"/>
    </g>
  </g>
  <g id="sword2_animation1" transform="translate(-800 -800)">
    <g id="sword2_animation2">
      <path id="sword2" d="M257.07 613.89c2.61 2.91 4.88 5.44 50.69 55.8 45.81 50.36 46.29 51.43 46.77 51.96 4.59 5.15 9.25 10.23 13.87 15.34 5.65 6.23 11.28 12.47 16.96 18.75-2.76.6-16.1-2.61-26.26-6.12-8.63-2.98-16.71-7.07-67.19-57.925s-52.99-53.685-55.9-56.815c-1.91 2.01-3.7 3.99-5.58 5.87-3.15 3.17-7.23 3.26-10.21.3-2.87-2.85-2.76-7.17.3-10.26 3.73-3.76 7.51-7.48 11.71-11.66-3.5-3.34-6.93-6.57-10.3-9.84-2.71-2.63-5.36-5.32-8.05-7.97-3.33-3.29-3.6-7.6-.65-10.57 2.95-2.97 7.29-2.72 10.58.58 5.54 5.56 11.09 11.1 16.64 16.64.45.45.95.87 1.53 1.4 3.87-3.88 7.62-7.72 11.46-11.48 4.23-4.14 10.63-2.38 12.08 3.32.63 2.45-.15 4.6-1.9 6.36-2.08 2.1-4.26 4.12-6.55 6.32z" transform="matrix(4 0 0 4 -800 -2320)" fill="#000" stroke="none" stroke-width="1"/>
    </g>
  </g>
  <g id="head_animation" transform="translate(391.269 389.807)">
    <g id="head_group" transform="matrix(4 0 0 4 -1238.666 -2714.817)">
      <path id="head_outline" d="M337.25 624.068c22.164 19.68 22.274 20.77 22.544 21.37 2.6 5.91 4.53 11.99 5.21 18.44.07.61.55 1.31 1.04 1.72 7.22 5.95 11.88 13.41 13.17 22.73.5 3.65.69 7.56-1.43 10.79-4.17 6.34-6.55 13.03-5.16 20.79l-.66.36c-4.55-3.46-9.11-6.91-13.42-10.18-1.32 2.7-2.8 5.52-14.46 18.41s-15.21 16.65-20.41 18.34c-2.16.7-4.49 1.2-6.76 1.23-9.23.14-18.46-.01-27.68.08-8.13.08-14.11-3.55-27.99-18.675-13.88-15.125-14.97-20.655-14.38-26.535.37-3.68-1.61-6.53-2.82-9.64-3.32-8.58-4.71-17.45-4.12-26.58.47-7.33 2.2-14.41 5.4-21.07.64-1.32.53-2.11 22.615-21.725 22.085-19.615 47.145-19.535 69.31.145z" fill="#000" stroke="none" stroke-width="1"/>
      <path id="head_main" d="M253.74 665.56h96.41c1.44 8.81.51 17.35-3.2 25.24-2.42 5.16-3.5 10.23-3.18 15.82.18 3.08-1.02 5.72-4.13 6.95-1.11.44-2.38.66-3.58.68-4.28.08-8.56.03-13.17.03 0 3.24.04 6.4-.01 9.56-.03 1.95.05 3.94-.34 5.82-.74 3.59-3.09 5.49-6.76 5.51-9.22.07-18.45.09-27.67 0-4.28-.04-7.04-3.05-7.09-7.43-.04-4.41-.01-8.82-.01-13.47h-12.75c-5.4-.01-8.36-2.76-8.12-8.12.24-5.3-.7-10.11-3.02-15-3.8-7.94-4.66-16.58-3.38-25.59z" fill="#FFF" stroke="none" stroke-width="1"/>
      <path id="forehead" d="M342.47 645.52c-27.01-10.89-53.92-10.94-80.74.1 6.53-11.18 20.87-21.47 38.47-21.92 17.87-.45 32.08 7 42.27 21.82z" fill="#FFF" stroke="none" stroke-width="1"/>
      <path id="nose" d="M308.82 707.47h-13.67v13.66h13.67v-13.66z" fill="#000" stroke="none" stroke-width="1"/>
      <g id="right_eye_animation" transform="translate(322.863 686.352)">
        <path id="right_eye" d="M322.87 700.33c7.8 0 13.77-6.06 14-13.77.22-7.56-6.46-14.14-13.87-14.2-7.59-.06-14.11 6.6-14.15 13.96-.03 7.52 6.59 14.38 14.02 14.01z" transform="translate(-322.863 -686.352)" fill="#000" stroke="none" stroke-width="1"/>
      </g>
      <path id="left_eye" d="M294.97 686.42c0-7.82-6.04-13.79-13.75-14.02-7.73-.23-14.16 6.63-14.22 13.85-.06 7.63 6.63 14.12 13.94 14.16 7.52.04 14.38-6.57 14.03-13.99z" fill="#000" stroke="none" stroke-width="1"/>
    </g>
  </g>
</svg>
