<svg xmlns="http://www.w3.org/2000/svg" id="plex" viewBox="0 0 762 762" width="500" height="500" shape-rendering="geometricPrecision" text-rendering="geometricPrecision" version="1.1">
  <style id="zoom">
    @keyframes plex_logo_animation__ts{0%,to{transform:translate(172.597734px,437.58533px) scale(1,1)}26.666667%,73.333333%{transform:translate(172.597734px,437.58533px) scale(1,1);animation-timing-function:cubic-bezier(.42,0,.58,1)}40%,60%{transform:translate(172.597734px,437.58533px) scale(0,0);animation-timing-function:cubic-bezier(.42,0,.58,1)}}#plex_logo_animation{animation:plex_logo_animation__ts 3000ms linear infinite normal forwards}
  </style>
  <g id="background" transform="matrix(4 0 0 4 -304.4 -1367.446)">
    <path id="square" d="M171.36 532.36h-71.6c-10.78 0-20.86-8.3-22.88-18.89-.32-1.67-.49-3.4-.49-5.1-.03-47.58-.02-95.15-.02-142.73 0-10.95 8.25-20.97 19.01-23.01 1.59-.3 3.24-.48 4.86-.48 47.62-.02 95.23-.02 142.85-.02 10.95 0 20.99 8.26 23.01 19.01.31 1.63.48 3.32.48 4.98.02 47.58.02 95.15.02 142.73 0 10.95-8.25 20.97-19.01 23.01-1.59.3-3.24.48-4.86.48-23.79.03-47.58.02-71.37.02z" fill="#FE8A30" stroke="none" stroke-width="1"/>
    <g id="plex_logo_animation" transform="translate(172.598 437.585)">
      <path id="plex_logo" d="M130.15 507.19c.33.05.48.09.63.09 12.83 0 25.66.01 38.49-.04.51 0 1.19-.45 1.48-.9 3.18-4.84 6.28-9.73 9.43-14.59 4.94-7.61 9.91-15.2 14.83-22.82 6.6-10.21 13.16-20.44 19.77-30.64.38-.59.33-.94-.01-1.47-1.79-2.73-3.54-5.49-5.32-8.24-6.52-10.07-13.05-20.13-19.56-30.19-3.61-5.57-7.22-11.15-10.81-16.73-2.62-4.07-5.25-8.13-7.83-12.23-.68-1.08-1.44-1.55-2.79-1.54-12.39.06-24.78.04-37.17.04-.34 0-.67.04-1.1.07.39.67.69 1.22 1.03 1.75 5.52 8.57 11.05 17.14 16.56 25.72 5.03 7.83 10.03 15.68 15.05 23.52 3.7 5.77 7.41 11.53 11.16 17.26.59.91.72 1.62.09 2.59-3.97 6.12-7.88 12.27-11.81 18.41-5.19 8.1-10.38 16.2-15.59 24.29-5.46 8.51-10.95 17-16.53 25.65z" transform="translate(-172.598 -437.585)" fill="#FFF" stroke="none" stroke-width="1"/>
    </g>
  </g>
</svg>
