<svg id="productivity" xmlns="http://www.w3.org/2000/svg" viewBox="0 0 769 769" width="500" height="500" shape-rendering="geometricPrecision" text-rendering="geometricPrecision">
  <style>
    @keyframes minute_hand_animation__tr{0%{transform:translate(318.98px,682.16px) rotate(0deg)}to{transform:translate(318.98px,682.16px) rotate(21600deg)}}@keyframes hour_hand_animation__tr{0%{transform:translate(318.98px,682.16px) rotate(0deg)}to{transform:translate(318.98px,682.16px) rotate(360deg)}}#minute_hand_animation{animation:minute_hand_animation__tr 30000ms linear infinite normal forwards}#hour_hand_animation{animation:hour_hand_animation__tr 30000ms linear infinite normal forwards}
  </style>
  <g id="background" transform="matrix(4 0 0 4 -890.486 -2343.246)">
    <path id="square" d="M414.87 682.19v72.19c0 11.03-8.32 21.11-19.18 23.18-1.61.31-3.27.48-4.9.48-47.97.03-95.93.02-143.9.02-11.76 0-22.02-9.02-23.56-20.72a23.27 23.27 0 01-.23-3.12c-.01-48.09-.01-96.18-.01-144.26 0-11.03 8.32-21.12 19.18-23.18 1.61-.31 3.27-.48 4.9-.48 48.01-.02 96.02-.02 144.02-.02 11.03 0 21.13 8.33 23.18 19.18.3 1.61.48 3.27.48 4.9.03 23.94.02 47.88.02 71.83z" fill="#FE8A30" stroke="none" stroke-width="1"/>
  </g>
  <g id="clock_top" transform="matrix(4 0 0 4 -890.458 -2343.236)">
    <g id="clock_group">
      <path id="clock_border" d="M401.46 661.13v1.01c-.38.36-.72.77-1.13 1.08-5.06 3.76-10.13 7.51-15.22 11.24-.45.33-.57.65-.53 1.18.4 4.34.41 8.68 0 13.02-.06.61.11.95.6 1.31 5.02 3.68 10.02 7.38 15 11.1.48.36.84.87 1.26 1.3v.84c-.16.26-.33.51-.48.77-7.47 12.88-14.95 25.76-22.42 38.65-.74 1.27-1.34 1.47-2.7.87-5.78-2.55-11.57-5.09-17.34-7.65-.52-.23-.89-.21-1.36.11-3.22 2.2-6.53 4.24-10.11 5.79-1.12.48-1.52 1.18-1.65 2.35-.62 5.99-1.31 11.97-1.99 17.95-.19 1.64-.53 1.93-2.19 1.93h-36.94c-2.66 0-5.33.01-7.99 0-.98 0-1.58-.49-1.69-1.39-.24-2.03-.46-4.06-.68-6.09-.5-4.48-1.01-8.96-1.48-13.44-.05-.47-.25-.67-.64-.84-3.9-1.69-7.53-3.84-10.96-6.32-.46-.34-.83-.37-1.37-.13-5.82 2.59-11.66 5.15-17.5 7.72-1.21.53-1.8.34-2.45-.77-7.54-12.97-15.07-25.95-22.6-38.93-.66-1.14-.53-1.73.52-2.51 5.11-3.79 10.22-7.58 15.34-11.35.48-.35.67-.67.61-1.3-.4-4.34-.39-8.68 0-13.02.05-.52-.1-.8-.51-1.1-5.1-3.75-10.18-7.53-15.27-11.3-1.28-.94-1.4-1.46-.62-2.81 7.47-12.85 14.94-25.7 22.41-38.56.79-1.35 1.3-1.52 2.75-.88 5.78 2.55 11.56 5.1 17.36 7.62.32.14.86.14 1.12-.04 3.54-2.48 7.25-4.66 11.2-6.43.41-.18.55-.42.6-.87.69-6.35 1.42-12.69 2.13-19.04.17-1.51.55-1.85 2.1-1.85H341.66c1.02 0 1.59.51 1.7 1.47.23 2 .45 4.01.67 6.01.5 4.48 1.01 8.96 1.48 13.44.05.46.23.67.62.86 3.85 1.77 7.52 3.86 10.99 6.29.46.32.83.36 1.36.13 5.72-2.55 11.45-5.07 17.19-7.59 1.61-.71 2.08-.56 2.98.99 5.53 9.54 11.06 19.08 16.6 28.62l6.21 10.56z" fill="#000" stroke="none" stroke-width="1"/>
      <path id="clock_face" d="M265.87 678.42h.99c2.95.01 5.89-.04 8.84.03 2.18.05 3.79 1.88 3.73 4.06-.07 2.16-1.83 3.79-4.2 3.81-2.83.03-5.67.01-8.5.01-.3 0-.59.03-.89.04 2.15 27.79 25.01 47.43 48.77 48.88v-.92-8.25c0-2.79 1.51-4.54 3.93-4.55 2.46-.01 3.97 1.74 3.97 4.59v9.22c27.28-1.55 48.18-24.23 49.55-49h-10.17c-1.5 0-2.73-.56-3.55-1.86-1.64-2.62.09-5.96 3.2-6.03 3.2-.08 6.4-.02 9.59-.03h1.11c-1.39-15.16-7.64-27.67-19.26-37.36-8.79-7.33-18.97-11.27-30.46-12.12v1.08c0 3.06.06 6.12-.04 9.17-.03.84-.36 1.77-.83 2.47-.96 1.41-2.75 1.86-4.35 1.31-1.62-.56-2.67-1.99-2.68-3.79-.03-3.09-.01-6.17-.01-9.26v-.91c-27.82 2.21-47.61 25.43-48.74 49.41z" fill="#FFF" stroke="none" stroke-width="1"/>
      <g id="minute_hand_animation" transform="translate(318.98 682.16)">
        <path id="minute_hand" d="M329.26 682.21c-.01 5.68-4.57 10.21-10.27 10.26-.38 0-.87.21-1.12.5-6.58 7.54-13.13 15.1-19.69 22.67-1.14 1.31-2.39 1.61-3.89.89-1.5-.72-2.39-2.23-2.08-3.66.09-.42.31-.84.55-1.2 5.45-8.22 10.9-16.42 16.37-24.63.3-.45.41-.81.19-1.36-.74-1.87-.932-6.47 1.905-10.365 2.58-3.122 6.095-3.295 6.675-3.365 6.08-.7 11.37 4.1 11.36 10.26z" transform="translate(-318.98 -682.16)" fill="#000" stroke="none" stroke-width="1"/>
      </g>
      <g id="hour_hand_animation" transform="translate(318.98 682.16)">
        <path id="hour_hand" d="M329.26 682.21c-.01 5.68-4.57 10.21-10.27 10.26-.38 0-3.527.3-6.502-2.148-2.474-2.036-2.948-4.092-3.168-4.642-.74-1.87-.76-3.81-.42-5.79.07-.38-.02-.9-.24-1.2-4.15-5.67-8.34-11.32-12.52-16.98-.94-1.28-.97-2.52-.07-3.79.89-1.26 2.49-1.93 3.81-1.49.46.15.9.46 1.26.79 5.16 4.74 10.31 9.5 15.45 14.27.39.36.73.53 1.31.46 6.08-.7 11.37 4.1 11.36 10.26z" transform="translate(-318.98 -682.16)" fill="#000" stroke="none" stroke-width="1"/>
      </g>
      <path id="inner_circle1" d="M311.91 682.09c.03-3.85 3.26-7.02 7.13-6.99 3.85.03 7.03 3.25 7.01 7.12-.02 3.9-3.25 7.06-7.18 7.02-3.85-.04-6.99-3.26-6.96-7.15z" fill="#FFF" stroke="none" stroke-width="1"/>
      <path id="inner_circle2" d="M318.98 677.98c2.26 0 4.19 1.92 4.19 4.18 0 2.25-1.93 4.19-4.18 4.19-2.26 0-4.19-1.92-4.19-4.18-.01-2.26 1.92-4.19 4.18-4.19z" fill="#000" stroke="none" stroke-width="1"/>
    </g>
  </g>
</svg>
