<svg xmlns="http://www.w3.org/2000/svg" id="search" viewBox="0 0 499.17 498.38" width="500" height="500" shape-rendering="geometricPrecision" text-rendering="geometricPrecision" version="1.1">
  <style id="pan">
    @keyframes magnifying_glass_animation__tr{0%,to{transform:translate(250px,450px) rotate(0deg)}25%{transform:translate(250px,450px) rotate(-17deg)}75%{transform:translate(250px,450px) rotate(17deg)}}#magnifying_glass_animation{animation:magnifying_glass_animation__tr 4000ms linear infinite normal forwards}
  </style>
  <g id="background">
    <path id="square" d="M498.1 249.4v186.99c0 28.57-21.55 54.69-49.69 60.04-4.16.79-8.46 1.24-12.69 1.24-124.24.07-248.48.05-372.72.05-30.45 0-57.04-23.36-61.03-53.67-.35-2.67-.59-5.39-.59-8.08-.04-124.55-.03-249.11-.03-373.66 0-28.58 21.56-54.7 49.69-60.04 4.16-.79 8.46-1.24 12.69-1.24C188.08.97 312.42.98 436.77.98c28.57 0 54.73 21.58 60.04 49.69.79 4.16 1.24 8.46 1.24 12.69.07 62.01.05 124.03.05 186.04z" fill="#F3632D" stroke="none" stroke-width="1"/>
  </g>
  <g id="magnifying_glass_top" transform="translate(-15.7 -4.3)">
    <g id="magnifying_glass_animation" transform="translate(250 450)">
      <g id="magnifying_glass" transform="translate(-250 -450)" stroke="none" stroke-width="1">
        <path id="magnifying_glass_edge" d="M345.09 48.68c-48.45-35.54-113.45-38-164.54-6.12-5.92 3.7-11.52 7.91-17.28 11.88l-17.92 17.92c-.5.87-.88 1.83-1.5 2.61-21.2 26.33-32.32 56.45-32.7 90.19-.79 70.82 47.01 130.59 116.17 145.88 1.01.22 1.99.57 3.4.99-1.13.99-1.77 1.61-2.46 2.16-13.28 10.44-20.53 24.11-20.7 40.97-.28 27.26-.29 54.52.09 81.78.18 12.9 5.54 24.09 14.43 33.4 11.55 12.1 25.88 16.93 42.53 16.72 29.81-.37 53.51-23.51 53.63-53.26.11-25.98.06-51.97 0-77.95-.02-9.67-2.64-18.66-7.65-26.96-4.57-7.57-10.78-13.5-18.26-18.33.5-.33.7-.52.93-.59 1.1-.33 2.21-.62 3.32-.94 41.24-11.81 72.25-36.6 92.09-74.5 33.54-64.08 14.75-143.07-43.58-185.85zm-20.73 184.9c-36.57 36.57-96.02 36.64-132.63.17-36.44-36.3-36.5-95.98-.14-132.74 36.4-36.81 96.19-36.65 133.14.35 36.37 36.4 36.2 95.65-.37 132.22z" fill="#000"/>
        <path id="magnifying_glass_shine" d="M201.87 115.51c20.19-18.99 40.98-26.49 65.22-23.92 9.51 1.01 15.64 8.26 14.72 17.13-.91 8.78-8.6 14.46-18.03 13.63-19.7-1.75-34.78 5.83-45.14 22.72-5.92 9.66-17.57 11.35-24.99 3.62-4.54-4.73-5.86-11.96-2.39-17.7 3.8-6.3 8.31-12.17 10.61-15.48z" fill="#FFF"/>
      </g>
    </g>
  </g>
</svg>
