<svg xmlns="http://www.w3.org/2000/svg" id="settings" viewBox="0 0 769 769" width="500" height="500" shape-rendering="geometricPrecision" text-rendering="geometricPrecision" version="1.1">
  <style id="spin">
    @keyframes gear_animation__tr{0%{transform:translate(299.00188px,673.181962px) rotate(0deg)}to{transform:translate(299.00188px,673.181962px) rotate(360deg)}}#gear_animation{animation:gear_animation__tr 3000ms linear infinite normal forwards}
  </style>
  <g id="background" transform="matrix(4 0 0 4 -806.006 -2320.4)">
    <path id="square" d="M393.75 676.01v72.19c0 11.03-8.32 21.11-19.18 23.18-1.61.31-3.27.48-4.9.48-47.97.03-95.93.02-143.9.02-11.76 0-22.02-9.02-23.56-20.72a23.27 23.27 0 01-.23-3.12c-.01-48.09-.01-96.18-.01-144.26 0-11.03 8.32-21.12 19.18-23.18 1.61-.31 3.27-.48 4.9-.48 48.01-.02 96.02-.02 144.02-.02 11.03 0 21.13 8.33 23.18 19.18.3 1.61.48 3.27.48 4.9.03 23.94.02 47.89.02 71.83z" fill="#F3632D" stroke="none" stroke-width="1"/>
  </g>
  <g id="settings_top" transform="matrix(4 0 0 4 -826.545 -2336.753)">
    <g id="settings_group">
      <g id="gear_animation" transform="translate(299.002 673.182)">
        <path id="gear" d="M291.24 592.79c-1.93.3-3.42 1.79-3.42 3.12 0 1.34-.74 5.06-1.64 8.04-1.93 7.44-6.55 7.59-12.2.45-2.23-2.83-5.36-5.21-6.7-5.21-3.42 0-16.67 8.33-16.67 10.42 0 .89 1.04 4.02 2.23 6.99 1.19 2.83 2.23 6.25 2.23 7.29 0 3.27-6.55 4.02-12.65 1.49-3.12-1.34-5.8-2.38-6.1-2.38-1.64 0-9.52 14.43-9.52 17.26 0 2.08 1.93 4.91 5.21 7.44 2.83 2.08 5.21 4.76 5.21 5.95 0 2.83-5.95 6.55-10.71 6.55-7.14 0-10.12 7.44-7.74 19.2.89 4.17 1.49 4.61 6.4 4.61 5.65 0 12.05 3.42 12.05 6.25 0 1.04-2.38 3.87-5.21 6.55-2.83 2.53-5.21 6.1-5.21 7.89 0 4.17 3.27 10.56 7.14 13.99 2.98 2.68 3.27 2.68 9.52-.3 6.4-2.98 6.4-2.98 9.37 0 2.83 2.68 2.83 2.98.3 9.82-2.38 6.55-2.38 6.99 0 9.82 1.49 1.49 5.36 4.17 8.63 5.8l5.8 3.12 5.8-6.55c5.51-6.25 5.8-6.4 9.67-4.17 3.12 1.64 4.17 3.42 4.46 8.04.6 7.29 3.42 9.67 11.76 9.67 7.89 0 11.61-3.42 13.09-11.76 1.34-8.04 5.65-9.67 10.56-3.72 1.93 2.38 3.42 4.76 3.57 5.36 0 2.53 8.33 1.04 14.43-2.53 7.14-4.32 7.74-6.7 3.87-14.88-2.38-4.91-2.38-5.36 0-7.74s2.98-2.38 9.82.15c4.17 1.49 8.18 2.23 8.93 1.79.74-.6 3.57-4.76 6.25-9.37 4.46-7.89 4.61-8.48 2.23-9.97-6.84-4.17-9.82-7.29-9.82-10.71 0-3.87 4.46-6.55 11.16-6.55 4.46 0 6.7-3.87 6.7-11.76 0-8.48-1.19-10.42-7.14-11.46-12.2-2.23-13.69-6.1-5.51-13.99 2.83-2.83 5.21-5.95 5.21-6.84 0-2.08-8.18-14.88-10.42-16.22-.74-.45-3.42.15-5.8 1.49-5.65 2.83-9.67 2.83-12.05 0-1.64-1.93-1.49-3.27.45-7.59 3.57-7.44 3.27-8.93-3.72-13.99-7.89-5.8-10.42-5.65-16.22.74-2.68 2.83-5.95 5.21-7.44 5.21-3.42 0-5.8-4.32-5.8-10.27 0-2.38-.6-4.91-1.49-5.36-2.05-1.18-15-2.08-18.87-1.18z" transform="translate(-299.002 -673.182)" fill="#FFF" stroke="none" stroke-width="1"/>
      </g>
      <path id="wrench_outline" d="M290.66 625.97c-22.61 3.96-39.79 23.69-39.79 47.43 0 24.65 18.53 44.98 42.42 47.82 1.88.22 3.8.34 5.74.34 3.37 0 6.66-.35 9.84-1.01l9.26 9.02c14.01 13.64 28.03 27.26 42.05 40.89l3.32-3.05 17.12-15.72 8.38-16.41s1.07-.98 2.45-2.25c-18.65-16.99-26.12-35.54-44.77-52.53.22-1.48.37-2.99.46-4.52.05-.86.07-1.72.07-2.59 0-26.59-21.56-48.15-48.15-48.15-2.88.01-5.68.26-8.4.73z" fill="#F3632D" stroke="none" stroke-width="1"/>
      <path id="wrench" d="M269.76 660.15c5.63 5.64 11.1 11.13 16.58 16.61 2.74 2.74 4.44 2.74 7.18 0 3.44-3.44 6.87-6.88 10.31-10.32 2.73-2.73 2.74-4.47.06-7.16l-15.27-15.27c-.43-.43-.83-.88-1.71-1.81 3.58-.71 6.7-1.71 9.88-1.89 16.85-.97 30.52 9.6 33.64 26.15.67 3.54.28 7.33.04 10.98-.09 1.45.09 2.37 1.13 3.37 16.38 15.82 32.7 31.68 49.08 47.5 3.19 3.08 4.25 6.6 2.9 10.86-2.93 9.25-9.05 15.16-18.44 17.55-3.62.92-6.79-.18-9.4-2.88-15.97-16.49-31.95-32.96-47.89-49.47-.9-.93-1.69-1.27-3-1.06-18.02 2.88-33.61-8.02-37.07-25.86-1.09-5.52-.31-12.58 1.98-17.3z" fill="#FFF" stroke="none" stroke-width="1"/>
    </g>
  </g>
</svg>
