<svg xmlns="http://www.w3.org/2000/svg" id="ship" viewBox="0 0 769 769" width="500" height="500" shape-rendering="geometricPrecision" text-rendering="geometricPrecision" version="1.1">
  <style id="sailing">
    @keyframes ship_animation_movement__to{0%,to{transform:translate(383.554642px,385.421783px)}30.30303%{transform:translate(393.55px,385.42px)}70.707071%{transform:translate(373.55px,385.421783px)}}@keyframes ship_animation_rocking__tr{0%,50.505051%,to{transform:rotate(0deg)}20.20202%,80.808081%{transform:rotate(-3deg)}}@keyframes flag1_f_o{0%,10.10101%,12.121212%,14.141414%,16.161616%,18.181818%,2.020202%,20.20202%,22.222222%,24.242424%,26.262626%,28.282828%,30.30303%,32.323232%,34.343434%,36.363636%,38.383838%,4.040404%,40.40404%,42.424242%,44.444444%,46.464646%,48.484848%,50.505051%,52.525253%,54.545455%,56.565657%,58.585859%,6.060606%,60.606061%,62.626263%,64.646465%,66.666667%,68.686869%,70.707071%,72.727273%,74.747475%,76.767677%,78.787879%,8.080808%,80.808081%,82.828283%,84.848485%,86.868687%,88.888889%,90.909091%,92.929293%,94.949495%,96.969697%,98.989899%{fill-opacity:1}1.010101%,11.111111%,13.131313%,15.151515%,17.171717%,19.191919%,21.212121%,23.232323%,25.252525%,27.272727%,29.292929%,3.030303%,31.313131%,33.333333%,35.353535%,37.373737%,39.393939%,41.414141%,43.434343%,45.454545%,47.474747%,49.494949%,5.050505%,51.515152%,53.535354%,55.555556%,57.575758%,59.59596%,61.616162%,63.636364%,65.656566%,67.676768%,69.69697%,7.070707%,71.717172%,73.737374%,75.757576%,77.777778%,79.79798%,81.818182%,83.838384%,85.858586%,87.878788%,89.89899%,9.090909%,91.919192%,93.939394%,95.959596%,97.979798%,to{fill-opacity:0}}@keyframes flag2_f_o{0%,10.10101%,12.121212%,14.141414%,16.161616%,18.181818%,2.020202%,20.20202%,22.222222%,24.242424%,26.262626%,28.282828%,30.30303%,32.323232%,34.343434%,36.363636%,38.383838%,4.040404%,40.40404%,42.424242%,44.444444%,46.464646%,48.484848%,50.505051%,52.525253%,54.545455%,56.565657%,58.585859%,6.060606%,60.606061%,62.626263%,64.646465%,66.666667%,68.686869%,70.707071%,72.727273%,74.747475%,76.767677%,78.787879%,8.080808%,80.808081%,82.828283%,84.848485%,86.868687%,88.888889%,90.909091%,92.929293%,94.949495%,96.969697%,98.989899%{fill-opacity:0}1.010101%,11.111111%,13.131313%,15.151515%,17.171717%,19.191919%,21.212121%,23.232323%,25.252525%,27.272727%,29.292929%,3.030303%,31.313131%,33.333333%,35.353535%,37.373737%,39.393939%,41.414141%,43.434343%,45.454545%,47.474747%,49.494949%,5.050505%,51.515152%,53.535354%,55.555556%,57.575758%,59.59596%,61.616162%,63.636364%,65.656566%,67.676768%,69.69697%,7.070707%,71.717172%,73.737374%,75.757576%,77.777778%,79.79798%,81.818182%,83.838384%,85.858586%,87.878788%,89.89899%,9.090909%,91.919192%,93.939394%,95.959596%,97.979798%,to{fill-opacity:1}}#ship_animation_movement{animation:ship_animation_movement__to 9900ms linear infinite normal forwards}#ship_animation_rocking{animation:ship_animation_rocking__tr 9900ms linear infinite normal forwards}#flag1{animation:flag1_f_o 9900ms linear infinite normal forwards}#flag2{animation:flag2_f_o 9900ms linear infinite normal forwards}
  </style>
  <g id="background" transform="matrix(4 0 0 4 -887.96 -2344.006)">
    <path id="square" d="M413.77 682.38v72.19c0 11.03-8.32 21.11-19.18 23.18-1.61.31-3.27.48-4.9.48-47.97.03-95.93.02-143.9.02-11.76 0-22.02-9.02-23.56-20.72a23.27 23.27 0 01-.23-3.12c-.01-48.09-.01-96.18-.01-144.26 0-11.03 8.32-21.12 19.18-23.18 1.61-.31 3.27-.48 4.9-.48 48.01-.02 96.02-.02 144.02-.02 11.03 0 21.13 8.33 23.18 19.18.3 1.61.48 3.27.48 4.9.03 23.94.02 47.89.02 71.83z" fill="#F3632D" stroke="none" stroke-width="1"/>
  </g>
  <g id="ship_animation_movement" transform="translate(383.555 385.422)">
    <g id="ship_animation_rocking">
      <g id="ship_top" transform="matrix(4 0 0 4 -1271.489 -2729.383)">
        <g id="ship_group" stroke="none" stroke-width="1">
          <path id="ship_outline" d="M316.8 597.79c-.08-1.24.04-2.44.87-3.48 1.19-1.46 2.98-2.01 4.78-1.41 1.65.55 2.82 2.2 2.82 4.03.01 5.37 0 10.74 0 16.11v.93h.99c12.02 0 24.04 0 36.06-.01.6 0 .99.16 1.4.63 4.16 4.83 7.73 10.04 10.55 15.76 2.91 5.9 5.09 12.07 6.39 18.52.67 3.33 1.32 6.68 1.61 10.06.38 4.34.46 8.71.53 13.06.04 2.68-.07 5.37-.35 8.03a225.8 225.8 0 01-1.61 12.12 114.26 114.26 0 01-4.51 18.3c-.84 2.51-1.8 4.97-2.74 7.54-1.28-.58-2.48-1.12-3.67-1.67-6.33-2.95-12.98-4.82-19.85-6.01-4.42-.76-8.86-1.3-13.34-1.49-3.78-.16-7.56-.27-11.4-.4v25.1c1.39-.06 2.76-.07 4.12-.2 2.76-.25 5.54-.47 8.28-.87 7.79-1.12 15.36-2.97 22.09-7.28 1.3-.83 2.4-1.95 3.61-2.92.26-.21.56-.41.88-.5 15.22-4.38 20.97-5.9 36.19-10.27 5.56-1.6-2.91.72 2.67-.84 2.38-.66 4.55.63 5.24 2.99.63 2.16-.62 4.43-2.89 5.12-3.29 1-.93.36-4.23 1.31-1.33.46-1.35.18-2.62.62-.49.14-.61.38-.64.83-.2 2.75-.3 5.51-.64 8.23-1.23 9.75-4.31 18.79-10.64 26.49-3.74 4.56-8.32 8.09-13.62 10.68-5.17 2.52-10.63 4.06-16.34 4.71-2.69.31-5.38.58-8.1.31-.27-.03-.55-.01-.83-.01-24.54 0-49.08.04-73.63-.02-6.52-.02-12.69-1.63-18.24-5.16-5.13-3.27-8.52-7.95-10.51-13.67-1.61-4.62-2.26-9.41-1.88-14.26.15-1.87-.28-2.97-1.86-3.86-1.04-.59-1.96-1.39-2.91-2.12-.21-.16-.38-.45-.45-.7-.51-2.06-.97-4.13-1.5-6.18-.08-.32-.39-.69-.69-.84-2.8-1.38-5.62-2.73-8.45-4.05-.53-.25-.66-.47-.51-1.07 1.34-5.24 2.64-10.5 3.96-15.74.04-.17.11-.33.19-.55 11.74 3.93 23.4 7.83 35.21 11.78 4.47-34.78.11-68.48-11.25-101.49h61.4v-15.99l.06-.2z" fill="#000"/>
          <path id="deck_holes" d="M237.01 716.03c2.23 1.07 4.39 2.12 6.56 3.14.44.2.63.47.73.93.52 2.32 1.06 4.64 1.63 6.94.08.33.32.69.59.89 1.51 1.15 3.06 2.26 4.6 3.4.62.46 1.53.83 1.76 1.44.25.65-.12 1.55-.27 2.34-.97 5.04-.75 10.03.83 14.92 1.22 3.75 3.32 6.91 6.6 9.17 4.29 2.97 9.18 4.21 14.28 4.23 24.66.09 49.33.04 73.99.04.3 0 .6 0 .9.01 5.26.18 10.4-.57 15.39-2.25 10.17-3.41 17.25-10.09 21.23-20.07 1.93-4.83 2.92-9.88 3.43-15.03.09-.88.13-1.77.19-2.72-.24.05-.36.07-.47.1-6.66 1.91-13.33 3.82-19.98 5.76-.44.13-.86.38-1.24.65-1.19.84-2.31 1.77-3.53 2.56-4.62 2.97-9.68 4.91-14.95 6.33-6.48 1.75-13.1 2.63-19.79 3.03-6.9.4-13.78.34-20.65-.46-6.54-.76-12.94-2.12-19.17-4.25-8.22-2.81-15.85-6.73-22.55-12.34-.26-.22-.59-.36-.92-.47-6.38-2.15-12.77-4.29-19.16-6.42-3.2-1.07-6.4-2.13-9.65-3.22-.13.45-.24.85-.38 1.35z" fill="#000"/>
          <path id="inner_chunk" d="M316.72 733.48v-24.52c-9.83.1-41.7 5.56-45.79 7.85.99.85 1.94 1.73 2.96 2.52 8.17 6.31 17.49 10.09 27.51 12.21 3.51.74 7.09 1.15 10.66 1.63 1.52.21 3.07.21 4.66.31z" fill="#F3632D"/>
          <path id="sail" d="M368.67 706.44c-2.82-.88-5.5-1.78-8.23-2.54-4.54-1.26-9.18-2.1-13.86-2.72-6.45-.86-12.94-1.16-19.44-1.14-8.26.02-16.49.64-24.68 1.67-8.71 1.1-17.33 2.66-25.88 4.68-.11.03-.24.02-.44.03 2.29-28.52-1.17-56.39-9.03-83.89h.85c30.16 0 60.32 0 90.49-.01.56 0 .9.17 1.24.61 7.08 9.08 11.32 19.39 13.31 30.67 1.36 7.7 1.62 15.45 1.11 23.24-.63 9.7-2.38 19.19-5.16 28.5-.08.3-.19.6-.28.9zm-64.75-18.03h34.18v-.87c0-3.03.01-6.07-.02-9.1-.01-.58.2-.97.59-1.37.84-.86 1.69-1.72 2.43-2.66 4.46-5.67 6.23-12.13 5.29-19.25-.96-7.25-4.5-13.06-10.41-17.36-5.59-4.07-11.89-5.57-18.72-4.58-6.2.89-11.4 3.75-15.5 8.47-5.2 5.99-7.21 12.98-6.06 20.82.84 5.7 3.44 10.54 7.6 14.51.46.44.62.89.62 1.51-.03 3.01-.01 6.02-.01 9.03.01.26.01.53.01.85z" fill="#FFF"/>
          <path id="skull_outline" d="M299.7 695.86v-1.1c0-3.85-.02-7.7.02-11.54.01-.79-.2-1.36-.79-1.93-5.32-5.09-8.65-11.27-9.72-18.55-1.47-10.02 1.1-18.96 7.75-26.61 5.24-6.04 11.89-9.69 19.81-10.83 8.73-1.26 16.78.65 23.93 5.86 7.55 5.5 12.08 12.93 13.3 22.2 1.21 9.11-1.06 17.36-6.76 24.61-.95 1.2-2.03 2.31-3.11 3.4-.5.51-.77 1.01-.76 1.75.04 3.88.02 7.76.02 11.64v1.11c-14.58-.01-29.09-.01-43.69-.01zm32.61-12.34c.08-.03.15-.07.23-.1 0-.6-.01-1.2 0-1.79.02-1.47-.37-3.13.18-4.37.53-1.21 2.02-1.99 3.09-2.96l.15-.12c6.4-6.01 8.84-13.33 6.77-21.87-2.92-12.07-15.69-19.29-27.51-15.5-8.46 2.71-13.61 8.62-15.19 17.42-.98 5.44.22 10.48 3.09 15.17 1.79 2.92 4.38 5.08 6.91 7.3.46.4.64.79.63 1.38-.04 1.83-.01 3.67-.01 5.5 1.13-2.42 2.77-4.01 5.54-3.96 2.88.05 4.5 1.76 5.38 4.56.87-2.7 2.42-4.42 5.22-4.55 2.78-.14 4.5 1.39 5.52 3.89z" fill="#000"/>
          <path id="deck" d="M388.98 723.52c-6.66 1.91-13.33 3.82-19.98 5.76-.44.13-.86.38-1.24.65-1.19.84-2.31 1.77-3.53 2.56-4.62 2.97-9.68 4.91-14.95 6.33-6.48 1.75-13.1 2.63-19.79 3.03-6.9.4-13.78.34-20.65-.46-6.54-.76-12.94-2.12-19.17-4.25-8.22-2.81-15.85-6.73-22.55-12.34-.26-.22-.59-.36-.92-.47-6.38-2.15-12.77-4.29-19.16-6.42-3.2-1.07-6.4-2.13-9.65-3.22-.12.45-.24.85-.37 1.35 2.23 1.07 4.39 2.12 6.56 3.14.44.2.63.47.73.93.52 2.32 1.06 4.64 1.63 6.94.08.33.32.69.59.89 1.51 1.15 3.06 2.26 4.6 3.4.62.46 1.53.83 1.76 1.44.25.65-.12 1.55-.27 2.34-.97 5.04-.75 10.03.83 14.92 1.22 3.75 3.32 6.91 6.6 9.17 4.29 2.97 9.18 4.21 14.28 4.23 24.66.09 49.33.04 73.99.04.3 0 .6 0 .9.01 5.26.18 10.4-.57 15.39-2.25 10.17-3.41 17.25-10.09 21.23-20.07 1.93-4.83 2.92-9.88 3.43-15.03.09-.88.13-1.77.19-2.72-.25.04-.37.06-.48.1zm-98.01 31.38c-2.32-.07-4.15-2.03-4.09-4.41.05-2.27 2.08-4.22 4.31-4.13 2.37.09 4.22 2.03 4.17 4.35a4.258 4.258 0 01-4.39 4.19zm17.22 0c-2.31-.01-4.28-1.99-4.26-4.29.02-2.3 2.03-4.29 4.31-4.26 2.33.03 4.25 1.98 4.24 4.3-.02 2.34-1.96 4.26-4.29 4.25zm17.14 0c-2.34.01-4.26-1.9-4.27-4.24a4.298 4.298 0 014.22-4.31c2.29-.04 4.26 1.91 4.28 4.25.01 2.35-1.91 4.29-4.23 4.3zm17.05 0c-2.32 0-4.26-1.95-4.25-4.27.01-2.31 1.98-4.28 4.27-4.27 2.3.01 4.26 1.98 4.25 4.29 0 2.32-1.94 4.25-4.27 4.25z" fill="#FFF"/>
          <path id="skull_main" d="M332.31 683.52c-1.02-2.5-2.74-4.03-5.54-3.9-2.8.13-4.35 1.84-5.22 4.55-.88-2.8-2.5-4.51-5.38-4.56-2.77-.05-4.41 1.55-5.54 3.96 0-1.83-.02-3.67.01-5.5.01-.6-.17-.98-.63-1.38-2.53-2.22-5.12-4.38-6.91-7.3-2.87-4.69-4.07-9.73-3.09-15.17 1.59-8.81 6.74-14.71 15.19-17.42 11.82-3.79 24.58 3.43 27.51 15.5 2.07 8.54-.37 15.86-6.77 21.87l-.15.12c-1.07.97-2.56 1.76-3.09 2.96-.55 1.24-.16 2.89-.18 4.37-.01.6 0 1.2 0 1.79-.06.04-.13.07-.21.11zm-13.53-25.88c-.03-3.02-2.43-5.38-5.46-5.36-2.97.02-5.41 2.5-5.37 5.49.04 2.98 2.5 5.34 5.54 5.31 2.94-.03 5.31-2.46 5.29-5.44zm10.94 5.44c3.01.01 5.45-2.39 5.47-5.38.02-2.96-2.45-5.42-5.44-5.42s-5.46 2.47-5.44 5.43c.02 2.94 2.47 5.36 5.41 5.37z" fill="#FFF"/>
          <g id="skull_eyes" fill="#000">
            <path id="skull_eye1" d="M318.78 657.64c.03 2.97-2.35 5.41-5.29 5.44-3.04.03-5.5-2.33-5.54-5.31-.04-2.99 2.39-5.47 5.37-5.49 3.03-.01 5.43 2.34 5.46 5.36z"/>
            <path id="skull_eye2" d="M329.72 663.08c-2.94-.01-5.38-2.44-5.4-5.37-.02-2.96 2.45-5.43 5.44-5.43s5.46 2.46 5.44 5.42c-.03 2.99-2.47 5.39-5.48 5.38z"/>
          </g>
          <path id="flag1" d="M316.74 607.53c-1.2.11-2.37.25-3.53.31-3.25.18-6.37-.44-9.39-1.61-1.98-.76-3.89-1.72-5.89-2.39-2.91-.97-5.94-1.01-8.99-.76-3.18.26-6.25 1-9.26 2.05-2.05.72-4.18-.16-5.14-2.07-.98-1.94-.45-4.33 1.46-5.38 1.42-.78 3.02-1.29 4.6-1.73 3.6-1.01 7.29-1.54 11.04-1.52 4.66.02 9.12.94 13.32 3.06 2.49 1.26 5.13 1.99 7.94 1.86 1.04-.05 2.07-.31 3.1-.48.61-.1.85-.43.81-1.09l-.07 9.75z" fill="#000"/>
          <path id="flag2" d="M316.74 597.13c-1.2-.11-2.37-.25-3.53-.31-3.25-.18-6.37.44-9.39 1.61-1.98.76-3.89 1.72-5.89 2.39-2.91.97-5.94 1.01-8.99.76-3.18-.26-6.25-1-9.26-2.05-2.05-.72-4.18.16-5.14 2.07-.98 1.94-.45 4.33 1.46 5.38 1.42.78 3.02 1.29 4.6 1.73 3.6 1.01 7.29 1.54 11.04 1.52 4.66-.02 9.12-.94 13.32-3.06 2.49-1.26 5.13-1.99 7.94-1.86 1.04.05 2.07.31 3.1.48.61.1.85.43.81 1.09l-.07-9.75z" fill="#000" fill-opacity="0"/>
        </g>
      </g>
    </g>
  </g>
</svg>
