<svg xmlns="http://www.w3.org/2000/svg" id="audio" viewBox="0 0 700 700" width="500" height="500" shape-rendering="geometricPrecision" text-rendering="geometricPrecision" version="1.1">
  <style id="sound">
    @keyframes speaker_wrapper__ts{0%,36.666667%,50%,63.333333%,to{transform:translate(213.75px,349.749032px) scale(1,1)}43.333333%,56.666667%{transform:translate(213.75px,349.749032px) scale(1.05,1.05)}}@keyframes soundwave1_f_o{0%,16.666667%,83.333333%,to{fill-opacity:0}33.333333%,66.666667%{fill-opacity:1}}@keyframes soundwave2_f_o{0%,to{fill-opacity:0}16.666667%,83.333333%{fill-opacity:1}}#audio{pointer-events:all}#audio *{animation-play-state:paused!important}#audio:hover *{animation-play-state:running!important}#speaker_wrapper{animation:speaker_wrapper__ts 3000ms linear infinite normal forwards}#soundwave1{animation:soundwave1_f_o 3000ms linear infinite normal forwards}#soundwave2{animation:soundwave2_f_o 3000ms linear infinite normal forwards}
  </style>
  <path id="background" d="M70.1 1.9c-1.1 2-6 4.1-9.4 4.1-2.7 0-11.6 4.4-20.1 9.9-8 5.2-20.3 17.2-24 23.4-6 10.1-9.6 18.4-10.7 24.1-1.2 6.6-2.5 9.7-4.5 10.9C.2 75 0 119.6 0 348.2v273l2.4 2.9c1.6 1.9 2.7 4.8 3.2 8.5.3 3.1 1.6 7.5 2.9 9.7 1.2 2.3 2.7 5.8 3.4 7.8.6 2 2.1 4.5 3.1 5.4 1.1 1 2 2.3 2 3 0 .7 4 5.2 8.9 10.1 10.9 10.8 15 14.4 16.6 14.4.7 0 2.3.8 3.6 1.9 3.8 2.9 14.8 7.2 22.4 8.7 5.8 1.1 55.5 1.3 280 1.3 171.5.1 275.6-.3 280-.9 3.9-.5 9-1.9 11.5-3 9.7-4.2 11.6-5.1 15.1-7.3 2-1.2 4.9-3.1 6.5-4.2 4.7-3.3 20.2-19.4 21-21.8.4-1.2 1.7-3.5 3-5 1.3-1.6 2.4-3.4 2.4-4.1 0-.7 1.1-3.4 2.5-6 1.5-2.7 3.1-8.5 4-14.2.8-5.3 2-10.4 2.5-11.5.7-1.2 1-33.9.9-93.6-.2-139.6-.2-297.2.1-372.4.2-37.2-.1-68.2-.5-68.9-1.1-1.8-3.4-12.8-3.5-16.5 0-1.7-1.3-5.7-3-9-1.6-3.3-3-6.5-3-7.2 0-.6-2.5-4.9-5.6-9.5-5.9-8.7-15.2-18.3-21.9-22.6-2.2-1.4-4.2-2.8-4.5-3.2-.9-1.3-15.7-8-17.7-8-3.4 0-8.3-2.1-9.4-4.1C628 0 621.8 0 349.5 0 77.2 0 71 0 70.1 1.9z" stroke-width=".1" stroke="none" fill-rule="evenodd" fill="#D52727"/>
  <g id="speaker_wrapper" transform="translate(213.75 349.749)">
    <path id="speaker" d="M366.9 50.9c2.2 1.2 4.6 2.1 5.3 2.1 1.9 0 10.8 5.8 15.6 10.2 4 3.6 12.2 14 12.2 15.5 0 .5 1.2 3.1 2.8 5.8l2.7 5v519.2l-2.8 5.9c-3.2 6.7-3.2 6.7-6.8 12.1-4.8 7.1-19.6 18.5-25.8 19.8-1.8.4-5.2 1.6-7.5 2.6-6.3 2.9-19.4 2.6-29.2-.6-4.2-1.4-8-2.5-8.5-2.5-3.1 0-13.1-8.5-22.6-19.2-13.3-14.9-60.1-62.1-76.8-77.4-13.4-12.3-37.9-33.4-44-37.9-4.4-3.2-10.2-7.8-12.5-9.9-.8-.7-3.1-2.1-5-3.1s-4.2-2.3-5-3c-.8-.7-3.5-1.8-5.9-2.5-2.4-.6-5.6-1.9-7-2.8-2.2-1.5-7.4-1.8-40.6-2.3l-38-.6-8.9-3.7c-16.5-6.8-27.6-18.2-33.7-34.9l-2.9-8.1v-91.5c0-86.3.1-91.8 1.9-95.6 1-2.2 2.1-5.4 2.5-7 .4-1.7 1.9-4.8 3.4-7 7.9-11.8 14.3-17.5 26.7-23.5l7-3.4 37-.6c32.5-.5 37.5-.8 41-2.3 2.2-1 6-2.3 8.5-2.8 2.5-.6 5.6-1.8 7-2.7 1.4-.9 4.1-2.5 6-3.4 1.9-1 5.4-3.2 7.7-5 13.6-10.5 16.1-12.5 19.3-15.1 7.4-6 13.5-11.3 16-13.7 1.4-1.4 4.5-4.2 7-6.4 20.2-17.4 79.4-76.5 94.1-93.9 6.6-7.8 10.2-10.4 20.9-14.7 7.8-3.2 13-3.9 24.7-3.5 7.7.3 11.1.9 14.2 2.4z" transform="translate(-213.75 -349.749)" stroke-width=".1" stroke="none" fill="#FFF"/>
  </g>
  <path id="soundwave1" d="M572.2 120.1c15.5 13 38.6 37.9 48 51.9 1 1.4 3.1 4.3 4.7 6.5 1.7 2.2 4 5.6 5.1 7.5 1.2 1.9 3.6 6 5.5 9 1.8 3 4.2 7.4 5.3 9.6 1.1 2.3 2.4 4.4 3 4.8.6.3 1.6 2.3 2.3 4.4.6 2 2 4.7 3 6 1 1.3 2.1 3.7 2.4 5.4.4 1.7 1.8 5.1 3.1 7.6s2.4 5.2 2.4 6.1c0 .9 1.1 3.7 2.5 6.3 1.3 2.5 2.7 6.6 3.1 9 .4 2.3 1.5 5.9 2.5 7.9.9 1.9 2.3 6.4 2.9 10 .6 3.5 2 8.9 3 11.9s2.1 8.9 2.5 13c.3 4.1 1.5 12.1 2.6 17.8 2.5 13.5 2.8 54.6.4 66.9-.8 4.3-2.2 13.1-3 19.5-.8 6.4-2.1 13.4-3 15.4-.8 2-2 6.6-2.5 10.1-.6 3.6-1.9 8.2-2.9 10.2s-2.1 5.6-2.5 7.9c-.4 2.4-1.8 6.5-3.1 9-1.4 2.6-2.5 5.4-2.5 6.2 0 .8-1.4 4.2-3 7.5s-3 6.7-3 7.6c0 .8-1.1 3-2.5 4.9-1.4 1.9-2.5 4-2.5 4.8 0 .8-.9 2.6-2 4.2-1.1 1.5-3.8 6.3-6.1 10.6-2.3 4.4-4.9 8.8-5.8 9.9-1 1.1-2.2 3.1-2.9 4.5-.6 1.4-2.2 3.8-3.4 5.4-1.3 1.6-5.2 6.8-8.7 11.5-3.4 4.7-8.2 10.8-10.5 13.5-7.1 8.5-33.6 34.4-38.4 37.6-5.2 3.5-9.1 3.6-10.7.5-.5-1.2-2.8-4.7-5-7.9s-4.9-7.2-6-9c-1.1-1.8-3-4.5-4.2-6-1.3-1.6-2.3-3.3-2.3-3.9 0-.6-1.1-2.2-2.4-3.6-3.4-3.7-7.6-12.2-6.8-13.7.4-.7 3.3-3.6 6.6-6.4 7.9-6.9 17.1-16.5 27-28 8-9.5 9-10.8 12.4-16.3.9-1.6 2.9-4.5 4.5-6.4 1.5-2 2.7-4.1 2.7-4.7 0-.6 1.4-2.9 3-5 1.7-2.2 3-4.5 3-5.1 0-.7.8-2.3 1.8-3.6 1.1-1.3 2.4-3.9 3-5.7.6-1.8 2-4.5 3.1-6s2.2-4.4 2.6-6.5c.4-2 1.5-4.7 2.5-6 1-1.3 2.2-4.1 2.6-6.2.4-2.2 1.7-6.2 3-9 1.2-2.7 2.5-7.5 2.9-10.5.4-2.9 1.6-7.4 2.6-9.8 1.2-2.6 2.3-8.9 2.9-15.8.6-6.3 1.4-14.4 2-18.2 1.2-8.6 1.3-31.9 0-39.7-.5-3.3-1.4-11.2-2-17.6-.6-7.2-1.7-13.3-2.9-16-1.1-2.4-2.3-7.1-2.6-10.4-.4-3.3-1.8-8-3.1-10.5s-2.4-5.6-2.4-7c0-1.4-1.4-5.2-3-8.5-1.7-3.3-3-6.5-3-7.3 0-.7-1.1-3-2.5-5s-2.5-4.4-2.5-5.2c0-.9-1.1-3.1-2.5-5s-2.5-3.8-2.5-4.3c0-1.2-6.8-12.4-9.7-16-1.3-1.6-2.3-3.3-2.3-3.9 0-.6-1.2-2.5-2.7-4.3-1.6-1.8-3.6-4.3-4.6-5.6-8.6-11.7-21.8-25.8-33.4-35.8-8.3-7.1-8.3-9.4.3-20.6 3-4 6.4-9.1 8.4-12.8 1.1-2 2.4-3.7 2.9-3.7.4 0 1.3-1.2 2-2.8.7-1.5 2.8-5.1 4.7-8 4.8-7.2 7-7.1 16.6.9z" fill="#FFF" fill-opacity="0" stroke="none" stroke-width=".1"/>
  <path id="soundwave2" d="M504.3 205.6c4.8 2.5 27.7 26.7 27.7 29.3 0 .5.9 2 2 3.3 7.1 8 25 42.4 25 47.9 0 1.2 1.1 4.5 2.4 7.3 1.3 2.8 2.7 7.8 3.1 11.1.3 3.3 1.6 9.1 2.8 13 2 6.4 2.2 9.1 2.2 32 0 22.8-.2 25.6-2.2 32-1.2 3.8-2.5 9.7-2.9 13-.3 3.3-1.5 7.7-2.6 9.8-1 2-2.3 6-2.8 8.8-.5 2.8-1.8 6.3-2.9 7.7-1 1.5-2.2 4.1-2.5 5.9-.4 1.8-1.5 4.2-2.5 5.5-1 1.3-2.4 4-3 6-.7 2.1-1.7 4.1-2.3 4.4-.6.4-1.9 2.5-3 4.8-1 2.2-3.4 6.1-5.3 8.6s-4.3 5.6-5.2 7c-7.8 11.1-22.6 27.5-27 29.9-3.8 2-7.1 1.4-8.7-1.7-.8-1.6-2.2-3.5-3.2-4.3-.9-.8-2.3-2.8-3.1-4.4-.7-1.7-2.9-5-4.8-7.5s-4.3-6.1-5.4-8.1c-1.1-1.9-2.7-4.1-3.5-4.8-.9-.8-1.6-2-1.6-2.7 0-.8-1.3-2.8-3-4.6-4.5-4.6-4-6.8 3.3-15 2.6-2.9 5.8-6.4 7-7.8 1.2-1.4 3.5-4.5 5.1-7 1.6-2.5 4.2-6.4 5.7-8.8 1.6-2.3 2.9-4.9 2.9-5.6 0-.7 1.1-2.9 2.4-4.9 1.3-1.9 2.7-5 3.1-6.8.4-1.9 1.6-5 2.6-7s2.8-9.2 4-16c1.1-6.8 2.6-14.9 3.1-17.9 1-5.9.4-18.4-1.2-24-.6-1.9-1.7-7.9-2.5-13.2-.8-5.4-2.3-11.5-3.3-13.5-1.1-2.1-2.2-5.4-2.6-7.4-.4-2.1-1.3-4.2-2.1-4.9-.8-.6-1.9-2.8-2.6-4.8-.7-2-2.3-5.1-3.6-6.8-1.2-1.7-2.3-3.5-2.3-4.1 0-1.2-11.9-16.4-17-21.8-5.2-5.3-5.9-8.6-2.9-12.4 1.3-1.5 3.2-4.1 4.1-5.7 1.9-3.1 5.8-9 14.5-21.9 6.9-10.1 9.5-13.5 10.4-13.5.6 0 2.4.7 4.2 1.6z" fill="#FFF" fill-opacity="0" stroke="none" stroke-width=".1"/>
</svg>
