<svg id="binoculars" xmlns="http://www.w3.org/2000/svg" viewBox="0 0 499.17 498.38" width="500" height="500" shape-rendering="geometricPrecision" text-rendering="geometricPrecision">
  <style>
    @keyframes lens_animation__ts{0%,70%,to{transform:translate(249.728516px,255.818359px) scale(1,1)}42.5%{transform:translate(249.728516px,255.818359px) scale(1,1);animation-timing-function:cubic-bezier(.42,0,.58,1)}47.5%{transform:translate(249.728516px,255.818359px) scale(1,.038149);animation-timing-function:cubic-bezier(.445,.05,.55,.95)}52.5%,57.5%{transform:translate(249.728516px,255.818359px) scale(1,1.003279);animation-timing-function:cubic-bezier(.42,0,.58,1)}65%{transform:translate(249.728516px,255.818359px) scale(1,.04);animation-timing-function:cubic-bezier(.39,.575,.565,1)}}#binoculars{pointer-events:all}#binoculars *{animation-play-state:paused!important}#binoculars:hover *{animation-play-state:running!important}#lens_animation{animation:lens_animation__ts 4000ms linear infinite normal forwards}
  </style>
  <g id="background">
    <path id="square" d="M498.1 249.4v186.99c0 28.57-21.55 54.69-49.69 60.04-4.16.79-8.46 1.24-12.69 1.24-124.24.07-248.48.05-372.72.05-30.45 0-57.04-23.36-61.03-53.67-.35-2.67-.59-5.39-.59-8.08-.04-124.55-.03-249.11-.03-373.66 0-28.58 21.56-54.7 49.69-60.04 4.16-.79 8.46-1.24 12.69-1.24C188.08.97 312.42.98 436.77.98c28.57 0 54.73 21.58 60.04 49.69.79 4.16 1.24 8.46 1.24 12.69.07 62.01.05 124.03.05 186.04z" fill="#D52727" stroke="none" stroke-width="1"/>
  </g>
  <g id="binoculars_group" transform="translate(-1.055 4)">
    <path id="binoculars_case" d="M485.73 225.44c-4.68-20.46-14.93-38.2-30.93-52.14-10.48-9.12-21.24-17.92-32.1-26.59-12.41-9.9-24.6-20.2-37.74-29.05-19.59-13.19-41.39-17.16-64.54-11.35-14.76 3.7-27.59 11.02-38.3 21.83-2.2 2.22-3.82 2.72-6.77 1.21-16.42-8.36-33.02-8.38-49.39.07-3.37 1.74-5.06 1.02-7.45-1.44-14.32-14.73-32.01-22.59-52.36-23.96-19.73-1.33-37.78 3.9-53.43 16.25-21.27 16.79-42.87 33.19-63.5 50.74-21.81 18.57-34.44 42.57-36.48 71.41-.68 9.55-.49 19.32.69 28.82 1.92 15.47 8.16 29.59 16.9 42.43 21.15 31.07 50.76 47.58 88.23 49.3 21.15.97 41.24-3.78 59.48-14.87 18.92-11.5 33.65-27.07 43.77-46.8 1.37-2.67 2.42-2.83 4.9-1.6 7.26 3.62 15.06 5.84 23.13 6.03 8.73.2 17.06-2.39 24.89-6.17 2.51-1.21 3.36-.45 4.58 1.56 3.47 5.76 6.78 11.68 10.83 17.03 22.32 29.45 52.16 44.25 89.06 44.89 2.48 0 4.98.17 7.45-.03 23.21-1.9 44.17-9.74 61.91-24.89 35.06-29.96 47.43-67.84 37.17-112.68zm-235.15 46.49c-12.09.73-19.73-10.51-19.67-19.13.08-10.48 9.1-19.6 19.54-19.59 11.08.01 19.48 8.37 19.65 19.2.14 8.9-7.67 20.44-19.52 19.52z" fill="#000" stroke="none" stroke-width="1"/>
  </g>
  <g id="lens_animation" transform="translate(249.729 255.818)">
    <g id="lens_top" transform="translate(-254.2 -251.818)">
      <g id="lens_group" stroke="none" stroke-width="1">
        <path id="right_lens" d="M454.66 251.43c.79 42.62-35.31 72.06-70.5 72.85-43.19.97-74.45-35.55-74.47-72.33-.02-40.87 35.51-72.69 72.17-72.65 41.3.06 74.08 35.21 72.8 72.13z" fill="#FE8A30"/>
        <path id="left_lens" d="M53.76 252.44c-1.71-40.58 33.88-73.39 72.84-73.06 39.07.33 73.52 33.31 71.98 75.16-1.32 35.8-30.78 70.61-75.23 69.78-35.79-.66-71.17-33.46-69.59-71.88z" fill="#FE8A30"/>
        <path id="right_lens_shine" d="M329.36 249.66c1.37-15.22 7.98-27.21 18.93-37.06 9.66-8.68 20.98-12.8 33.99-12.69 4.88.04 8.14 4.06 8.58 7.54.51 4-2.42 8.14-6.8 9.25-4.31 1.08-8.82 1.53-12.99 2.99-14.92 5.19-21.86 16.58-23.61 31.65-.48 4.12-2.35 7.21-6.13 8.77-3.57 1.48-6.92.17-9-2.73-1.55-2.17-2.02-5.11-2.97-7.72z" fill="#FFF"/>
        <path id="left_lens_shine" d="M74.16 248.07c.98-22.74 20.28-44.31 43.75-47.74 2.44-.36 4.96-.33 7.44-.33 5.35.01 9.65 3.78 9.7 8.39.05 4.61-4.22 8.54-9.41 8.97-9.93.83-18.67 4.3-25.47 11.89-5.53 6.17-7.77 13.61-8.75 21.65-.27 2.26-1.07 4.72-2.4 6.52-2.07 2.79-5.24 4.15-8.72 2.75-3.46-1.4-6.06-3.77-6.14-7.93-.02-1.39 0-2.78 0-4.17z" fill="#FFF"/>
      </g>
    </g>
  </g>
</svg>
