<svg id="home-automation" xmlns="http://www.w3.org/2000/svg" viewBox="0 0 499.17 498.38" width="500" height="500" shape-rendering="geometricPrecision" text-rendering="geometricPrecision">
  <style>
    @keyframes gear_animation__tr{0%{transform:translate(250.35614px,302.716064px) rotate(0deg)}to{transform:translate(250.35614px,302.716064px) rotate(360deg)}}#home-automation{pointer-events:all}#home-automation *{animation-play-state:paused!important}#home-automation:hover *{animation-play-state:running!important}#gear_animation{animation:gear_animation__tr 3000ms linear infinite normal forwards}
  </style>
  <g id="background">
    <path id="square" d="M499.86 249.83v187.84c0 28.7-21.64 54.93-49.91 60.31-4.18.79-8.5 1.25-12.75 1.25-124.8.07-249.61.05-374.41.05-30.6 0-57.3-23.47-61.31-53.91-.35-2.69-.59-5.41-.59-8.12C.85 312.12.85 187 .85 61.89c0-28.71 21.66-54.95 49.91-60.31C54.94.79 59.26.33 63.51.33 188.42.26 313.32.28 438.24.28c28.71 0 54.98 21.68 60.31 49.91.79 4.18 1.24 8.5 1.25 12.75.08 62.29.06 124.59.06 186.89z" fill="#FE8A30" stroke="none" stroke-width="1"/>
  </g>
  <g id="house_group">
    <path id="house" d="M257.23 34.16c2.06 1.74 29.18 28.55 60.26 59.71s56.78 56.39 57.1 56.07c.32-.4.71-5.46.87-11.31.32-11.47 1.03-13.84 4.27-15.03 1.11-.47 12.1-.79 24.52-.79h22.54l1.9 1.98 1.98 1.9v38.75c0 24.99.32 39.54.79 40.96.47 1.19 13.44 14.87 28.86 30.29 30.13 30.21 31.4 31.79 29.34 36.69-2.21 5.22-2.06 5.22-29.42 5.22-22.3 0-24.83.16-26.33 1.34l-1.66 1.42-.25 83.21-.16 83.19-1.66 1.66c-.95.95-3.08 2.06-4.74 2.37-1.82.47-75.37.71-176.67.71-144.8-.08-173.98-.24-176.04-1.11-5.3-2.29-5.06 1.5-5.06-89.36 0-64.53-.24-81.93-1.03-82.4-.47-.32-12.57-.79-26.81-1.03-24.99-.4-25.94-.47-27.52-2.06-.95-.95-1.9-3.16-2.14-4.98-.4-2.69-.08-3.8 1.66-6.25 2.45-3.56 232.58-232.82 234.48-233.61 3.49-1.41 7.05-.62 10.92 2.46z" fill="#FFF" stroke="none" stroke-width="1"/>
    <g id="gear_animation" transform="translate(250.356 302.716)">
      <g id="gear_group" transform="translate(-250.356 -302.716)" stroke="none" stroke-width="1">
        <path id="gear" d="M162.26 406.23c-1.03.16-1.82.95-1.82 1.66s-.4 2.69-.87 4.27c-1.03 3.95-3.48 4.03-6.48.24-1.19-1.5-2.85-2.77-3.56-2.77-1.82 0-8.86 4.43-8.86 5.54 0 .47.55 2.14 1.19 3.72.63 1.5 1.19 3.32 1.19 3.88 0 1.74-3.48 2.14-6.72.79-1.66-.71-3.08-1.27-3.24-1.27-.87 0-5.06 7.67-5.06 9.17 0 1.11 1.03 2.61 2.77 3.95 1.5 1.11 2.77 2.53 2.77 3.16 0 1.5-3.16 3.48-5.69 3.48-3.8 0-5.38 3.95-4.11 10.2.47 2.21.79 2.45 3.4 2.45 3.01 0 6.41 1.82 6.41 3.32 0 .55-1.27 2.06-2.77 3.48-1.5 1.34-2.77 3.24-2.77 4.19 0 2.21 1.74 5.61 3.8 7.43 1.58 1.42 1.74 1.42 5.06-.16 3.4-1.58 3.4-1.58 4.98 0 1.5 1.42 1.5 1.58.16 5.22-1.27 3.48-1.27 3.72 0 5.22.79.79 2.85 2.21 4.59 3.08l3.08 1.66 3.08-3.48c2.93-3.32 3.08-3.4 5.14-2.21 1.66.87 2.21 1.82 2.37 4.27.32 3.88 1.82 5.14 6.25 5.14 4.19 0 6.17-1.82 6.96-6.25.71-4.27 3.01-5.14 5.61-1.98 1.03 1.27 1.82 2.53 1.9 2.85 0 1.34 4.43.55 7.67-1.34 3.8-2.29 4.11-3.56 2.06-7.91-1.27-2.61-1.27-2.85 0-4.11 1.27-1.27 1.58-1.27 5.22.08 2.21.79 4.35 1.19 4.74.95.4-.32 1.9-2.53 3.32-4.98 2.37-4.19 2.45-4.51 1.19-5.3-3.64-2.21-5.22-3.88-5.22-5.69 0-2.06 2.37-3.48 5.93-3.48 2.37 0 3.56-2.06 3.56-6.25 0-4.51-.63-5.54-3.8-6.09-6.48-1.19-7.28-3.24-2.93-7.43 1.5-1.5 2.77-3.16 2.77-3.64 0-1.11-4.35-7.91-5.54-8.62-.4-.24-1.82.08-3.08.79-3.01 1.5-5.14 1.5-6.41 0-.87-1.03-.79-1.74.24-4.03 1.9-3.95 1.74-4.74-1.98-7.43-4.19-3.08-5.54-3.01-8.62.4-1.42 1.5-3.16 2.77-3.95 2.77-1.82 0-3.08-2.29-3.08-5.46 0-1.27-.32-2.61-.79-2.85-1.12-.63-8-1.11-10.06-.63z" transform="matrix(3 0 0 3 -248.886 -1044.126)" fill="#FE8A30"/>
        <path id="gear_center" d="M171.04 428.29c.95.4 1.27 1.66 1.27 5.06 0 2.53.32 5.54.79 6.64.71 1.9 1.11 2.06 6.25 2.06 7.2 0 8.15.87 7.83 7.43l-.24 4.82-6.33.24c-7.83.24-8.3.79-8.3 8.62v5.85l-5.69-.24-5.77-.24-.24-5.93c-.16-3.24-.55-6.25-1.03-6.72-.4-.4-3.56-.95-6.88-1.19l-6.09-.4v-11.86l6.72-.4 6.72-.4.24-5.93c.08-3.24.32-6.41.55-6.96.39-1 7.9-1.32 10.2-.45z" transform="matrix(3 0 0 3 -250.408 -1044.52)" fill="#FFF"/>
      </g>
    </g>
  </g>
</svg>
